<?xml version="1.0" standalone="no"?>
<!DOCTYPE svg PUBLIC "-//W3C//DTD SVG 20010904//EN"
 "http://www.w3.org/TR/2001/REC-SVG-20010904/DTD/svg10.dtd">
<svg version="1.0" xmlns="http://www.w3.org/2000/svg"
 width="500.000000pt" height="500.000000pt" viewBox="0 0 500.000000 500.000000"
 preserveAspectRatio="xMidYMid meet">
<metadata>
Created by potrace 1.11, written by Peter Selinger 2001-2013
</metadata>
<g transform="translate(0.000000,500.000000) scale(0.100000,-0.100000)"
fill="#000000" stroke="none">
<path d="M1403 4945 c-103 -32 -204 -121 -251 -223 l-27 -57 0 -2247 0 -2246
31 -39 c63 -77 169 -106 247 -67 18 9 160 144 317 299 298 297 333 324 413
325 75 0 103 -22 402 -319 160 -159 305 -297 324 -306 50 -25 156 -18 203 14
44 30 77 79 89 128 5 21 9 930 9 2066 0 1702 2 2033 14 2060 17 39 71 92 109
106 16 6 99 11 187 11 88 0 182 5 210 11 222 48 261 372 57 474 l-51 25 -1120
-1 c-898 0 -1129 -3 -1163 -14z"/>
</g>
</svg>
