<svg width="187" height="71" viewBox="0 0 187 71" fill="none" xmlns="http://www.w3.org/2000/svg">
<path d="M88.1735 18.6984V24.3264H79.5635V49.2954H72.4655V24.3264H63.8555V18.6984H88.1735ZM87.7348 49.2954V27.5184H91.5988C91.9208 27.5184 92.1868 27.5464 92.3968 27.6024C92.6208 27.6584 92.8028 27.7494 92.9428 27.8754C93.0968 27.9874 93.2088 28.1414 93.2788 28.3374C93.3628 28.5334 93.4328 28.7714 93.4888 29.0514L93.8458 31.0884C94.6438 29.8564 95.5398 28.8834 96.5338 28.1694C97.5278 27.4554 98.6128 27.0984 99.7888 27.0984C100.783 27.0984 101.581 27.3364 102.183 27.8124L101.343 32.6004C101.287 32.8944 101.175 33.1044 101.007 33.2304C100.839 33.3424 100.615 33.3984 100.335 33.3984C100.097 33.3984 99.8168 33.3704 99.4948 33.3144C99.1728 33.2444 98.7668 33.2094 98.2768 33.2094C96.5688 33.2094 95.2248 34.1194 94.2448 35.9394V49.2954H87.7348ZM119.71 49.2954C119.094 49.2954 118.625 49.2114 118.303 49.0434C117.995 48.8754 117.736 48.5254 117.526 47.9934L117.064 46.7964C116.518 47.2584 115.993 47.6644 115.489 48.0144C114.985 48.3644 114.46 48.6654 113.914 48.9174C113.382 49.1554 112.808 49.3304 112.192 49.4424C111.59 49.5684 110.918 49.6314 110.176 49.6314C109.182 49.6314 108.279 49.5054 107.467 49.2534C106.655 48.9874 105.962 48.6024 105.388 48.0984C104.828 47.5944 104.394 46.9714 104.086 46.2294C103.778 45.4734 103.624 44.6054 103.624 43.6254C103.624 42.8554 103.82 42.0644 104.212 41.2524C104.604 40.4404 105.283 39.7054 106.249 39.0474C107.215 38.3754 108.517 37.8154 110.155 37.3674C111.793 36.9194 113.858 36.6674 116.35 36.6114V35.6874C116.35 34.4134 116.084 33.4964 115.552 32.9364C115.034 32.3624 114.292 32.0754 113.326 32.0754C112.556 32.0754 111.926 32.1594 111.436 32.3274C110.946 32.4954 110.505 32.6844 110.113 32.8944C109.735 33.1044 109.364 33.2934 109 33.4614C108.636 33.6294 108.202 33.7134 107.698 33.7134C107.25 33.7134 106.865 33.6084 106.543 33.3984C106.235 33.1744 105.99 32.9014 105.808 32.5794L104.632 30.5424C105.948 29.3804 107.404 28.5194 109 27.9594C110.61 27.3854 112.332 27.0984 114.166 27.0984C115.482 27.0984 116.665 27.3154 117.715 27.7494C118.779 28.1694 119.675 28.7644 120.403 29.5344C121.145 30.2904 121.712 31.1934 122.104 32.2434C122.496 33.2934 122.692 34.4414 122.692 35.6874V49.2954H119.71ZM112.234 45.3264C113.074 45.3264 113.809 45.1794 114.439 44.8854C115.069 44.5914 115.706 44.1154 116.35 43.4574V40.4334C115.048 40.4894 113.977 40.6014 113.137 40.7694C112.297 40.9374 111.632 41.1474 111.142 41.3994C110.652 41.6514 110.309 41.9384 110.113 42.2604C109.931 42.5824 109.84 42.9324 109.84 43.3104C109.84 44.0524 110.043 44.5774 110.449 44.8854C110.855 45.1794 111.45 45.3264 112.234 45.3264ZM143.023 32.6844C142.827 32.9224 142.638 33.1114 142.456 33.2514C142.274 33.3914 142.015 33.4614 141.679 33.4614C141.357 33.4614 141.063 33.3844 140.797 33.2304C140.545 33.0764 140.258 32.9084 139.936 32.7264C139.614 32.5304 139.236 32.3554 138.802 32.2014C138.368 32.0474 137.829 31.9704 137.185 31.9704C136.387 31.9704 135.694 32.1174 135.106 32.4114C134.532 32.7054 134.056 33.1254 133.678 33.6714C133.3 34.2174 133.02 34.8894 132.838 35.6874C132.656 36.4714 132.565 37.3604 132.565 38.3544C132.565 40.4404 132.964 42.0434 133.762 43.1634C134.574 44.2834 135.687 44.8434 137.101 44.8434C137.857 44.8434 138.452 44.7524 138.886 44.5704C139.334 44.3744 139.712 44.1644 140.02 43.9404C140.328 43.7024 140.608 43.4854 140.86 43.2894C141.126 43.0934 141.455 42.9954 141.847 42.9954C142.365 42.9954 142.757 43.1844 143.023 43.5624L144.913 45.8934C144.241 46.6634 143.534 47.2934 142.792 47.7834C142.05 48.2594 141.287 48.6374 140.503 48.9174C139.733 49.1834 138.956 49.3654 138.172 49.4634C137.388 49.5754 136.625 49.6314 135.883 49.6314C134.553 49.6314 133.279 49.3794 132.061 48.8754C130.857 48.3714 129.793 47.6434 128.869 46.6914C127.959 45.7254 127.231 44.5424 126.685 43.1424C126.153 41.7424 125.887 40.1464 125.887 38.3544C125.887 36.7864 126.118 35.3234 126.58 33.9654C127.056 32.5934 127.749 31.4104 128.659 30.4164C129.583 29.4084 130.717 28.6174 132.061 28.0434C133.419 27.4694 134.987 27.1824 136.765 27.1824C138.473 27.1824 139.971 27.4554 141.259 28.0014C142.547 28.5474 143.709 29.3454 144.745 30.3954L143.023 32.6844ZM157.065 27.1824C158.507 27.1824 159.823 27.4064 161.013 27.8544C162.217 28.3024 163.246 28.9534 164.1 29.8074C164.968 30.6614 165.64 31.7114 166.116 32.9574C166.606 34.1894 166.851 35.5894 166.851 37.1574C166.851 37.6474 166.83 38.0464 166.788 38.3544C166.746 38.6624 166.669 38.9074 166.557 39.0894C166.445 39.2714 166.291 39.3974 166.095 39.4674C165.913 39.5374 165.675 39.5724 165.381 39.5724H152.823C153.033 41.3924 153.586 42.7154 154.482 43.5414C155.378 44.3534 156.533 44.7594 157.947 44.7594C158.703 44.7594 159.354 44.6684 159.9 44.4864C160.446 44.3044 160.929 44.1014 161.349 43.8774C161.783 43.6534 162.175 43.4504 162.525 43.2684C162.889 43.0864 163.267 42.9954 163.659 42.9954C164.177 42.9954 164.569 43.1844 164.835 43.5624L166.725 45.8934C166.053 46.6634 165.325 47.2934 164.541 47.7834C163.771 48.2594 162.973 48.6374 162.147 48.9174C161.335 49.1834 160.516 49.3654 159.69 49.4634C158.878 49.5754 158.101 49.6314 157.359 49.6314C155.833 49.6314 154.398 49.3864 153.054 48.8964C151.724 48.3924 150.555 47.6504 149.547 46.6704C148.553 45.6904 147.762 44.4724 147.174 43.0164C146.6 41.5604 146.313 39.8664 146.313 37.9344C146.313 36.4784 146.558 35.0994 147.048 33.7974C147.552 32.4954 148.266 31.3544 149.19 30.3744C150.128 29.3944 151.255 28.6174 152.571 28.0434C153.901 27.4694 155.399 27.1824 157.065 27.1824ZM157.191 31.6764C155.945 31.6764 154.972 32.0334 154.272 32.7474C153.572 33.4474 153.11 34.4624 152.886 35.7924H161.013C161.013 35.2744 160.943 34.7704 160.803 34.2804C160.677 33.7904 160.46 33.3564 160.152 32.9784C159.858 32.5864 159.466 32.2714 158.976 32.0334C158.486 31.7954 157.891 31.6764 157.191 31.6764ZM183.9 32.2854C183.732 32.5514 183.55 32.7404 183.354 32.8524C183.172 32.9644 182.934 33.0204 182.64 33.0204C182.332 33.0204 182.024 32.9574 181.716 32.8314C181.408 32.6914 181.072 32.5444 180.708 32.3904C180.358 32.2364 179.959 32.0964 179.511 31.9704C179.063 31.8304 178.552 31.7604 177.978 31.7604C177.152 31.7604 176.515 31.9214 176.067 32.2434C175.633 32.5514 175.416 32.9854 175.416 33.5454C175.416 33.9514 175.556 34.2874 175.836 34.5534C176.13 34.8194 176.515 35.0574 176.991 35.2674C177.467 35.4634 178.006 35.6524 178.608 35.8344C179.21 36.0164 179.826 36.2194 180.456 36.4434C181.086 36.6674 181.702 36.9334 182.304 37.2414C182.906 37.5354 183.445 37.9064 183.921 38.3544C184.397 38.7884 184.775 39.3204 185.055 39.9504C185.349 40.5804 185.496 41.3364 185.496 42.2184C185.496 43.2964 185.3 44.2904 184.908 45.2004C184.516 46.1104 183.928 46.8944 183.144 47.5524C182.374 48.2104 181.415 48.7214 180.267 49.0854C179.133 49.4494 177.824 49.6314 176.34 49.6314C175.598 49.6314 174.856 49.5614 174.114 49.4214C173.372 49.2814 172.651 49.0924 171.951 48.8544C171.265 48.6164 170.628 48.3364 170.04 48.0144C169.452 47.6784 168.948 47.3214 168.528 46.9434L170.04 44.5494C170.222 44.2694 170.439 44.0524 170.691 43.8984C170.943 43.7304 171.272 43.6464 171.678 43.6464C172.056 43.6464 172.392 43.7304 172.686 43.8984C172.994 44.0664 173.323 44.2484 173.673 44.4444C174.023 44.6404 174.429 44.8224 174.891 44.9904C175.367 45.1584 175.962 45.2424 176.676 45.2424C177.18 45.2424 177.607 45.1934 177.957 45.0954C178.307 44.9834 178.587 44.8364 178.797 44.6544C179.007 44.4724 179.161 44.2694 179.259 44.0454C179.357 43.8214 179.406 43.5904 179.406 43.3524C179.406 42.9184 179.259 42.5614 178.965 42.2814C178.671 42.0014 178.286 41.7634 177.81 41.5674C177.334 41.3574 176.788 41.1684 176.172 41.0004C175.57 40.8184 174.954 40.6154 174.324 40.3914C173.694 40.1674 173.071 39.9014 172.455 39.5934C171.853 39.2714 171.314 38.8724 170.838 38.3964C170.362 37.9064 169.977 37.3114 169.683 36.6114C169.389 35.9114 169.242 35.0644 169.242 34.0704C169.242 33.1464 169.417 32.2714 169.767 31.4454C170.131 30.6054 170.67 29.8704 171.384 29.2404C172.098 28.6104 172.994 28.1134 174.072 27.7494C175.15 27.3714 176.41 27.1824 177.852 27.1824C178.636 27.1824 179.392 27.2524 180.12 27.3924C180.862 27.5324 181.555 27.7284 182.199 27.9804C182.843 28.2324 183.431 28.5334 183.963 28.8834C184.495 29.2194 184.964 29.5904 185.37 29.9964L183.9 32.2854Z" fill="white"/>
<path fill-rule="evenodd" clip-rule="evenodd" d="M22.9864 4.76825C20.1753 4.76825 17.8983 7.04521 17.8983 9.85585V63.2783C17.8983 64.677 19.0437 65.8224 20.4424 65.8224C21.1416 65.8224 21.7776 65.5432 22.2361 65.0846L28.8245 58.5333C29.8171 57.53 31.4317 57.53 32.4243 58.5333L39 65.0846C39.4585 65.5431 40.0945 65.8224 40.7938 65.8224C42.1925 65.8224 43.3379 64.677 43.3379 63.2783V13.6721C43.3379 12.1962 44.4834 11.1279 45.882 11.1279H49.0615C50.8167 11.1279 52.2419 9.70311 52.2419 7.94807C52.2419 6.19303 50.8167 4.76825 49.0615 4.76825H22.9864Z" fill="#EF6565"/>
</svg>
