<?xml version="1.0" encoding="utf-8"?>
<!-- Generator: Adobe Illustrator 23.1.1, SVG Export Plug-In . SVG Version: 6.00 Build 0)  -->
<svg version="1.1" id="Calque_1" xmlns="http://www.w3.org/2000/svg" xmlns:xlink="http://www.w3.org/1999/xlink" x="0px" y="0px"
	 viewBox="0 0 70 70" style="enable-background:new 0 0 70 70;" xml:space="preserve">
<style type="text/css">
	.st0{fill-rule:evenodd;clip-rule:evenodd;fill:#EF6565;}
</style>
<title>favicon</title>
<path class="st0" d="M21.8,0C18.6,0,16,2.6,16,5.8l0,0v61.3c0,1.6,1.3,2.9,2.9,2.9c0.8,0,1.5-0.3,2-0.8l7.5-7.5c1.1-1.1,3-1.2,4.1,0
	c0,0,0,0,0,0l7.5,7.5c0.5,0.5,1.3,0.9,2.1,0.8c1.6,0,2.9-1.3,2.9-2.9V10.2c0-1.6,1.2-2.9,2.8-2.9c0,0,0.1,0,0.1,0h3.7
	c2,0,3.6-1.6,3.6-3.6S53.7,0,51.7,0H21.8z"/>
</svg>
