<?xml version="1.0" encoding="utf-8"?>
<!-- Generator: Adobe Illustrator 23.1.1, SVG Export Plug-In . SVG Version: 6.00 Build 0)  -->
<svg version="1.1" id="Calque_1" xmlns="http://www.w3.org/2000/svg" xmlns:xlink="http://www.w3.org/1999/xlink" x="0px" y="0px"
	 viewBox="0 0 34 35" style="enable-background:new 0 0 34 35;" xml:space="preserve">
<style type="text/css">
	.st0{clip-path:url(#SVGID_2_);}
	.st1{fill:#BC441E;}
</style>
<g>
	<defs>
		<rect id="SVGID_1_" x="0.7" width="33" height="35"/>
	</defs>
	<clipPath id="SVGID_2_">
		<use xlink:href="#SVGID_1_"  style="overflow:visible;"/>
	</clipPath>
	<g class="st0">
		<path class="st1" d="M10.6,23h18.2c2.1,0,3.7-1.8,3.7-4V11c0,0,0,0,0,0c0,0,0,0,0-0.1c0,0,0,0,0,0c0,0,0,0,0-0.1c0,0,0,0,0,0
			c0,0,0,0,0-0.1c0,0,0,0,0,0c0,0,0,0,0,0c0,0,0,0,0-0.1c0,0,0,0,0,0c0,0,0,0,0,0c0,0,0,0,0,0c0,0,0,0,0,0c0,0,0,0,0,0c0,0,0,0,0,0
			c0,0,0,0,0,0c0,0,0,0,0,0c0,0,0,0,0,0c0,0,0,0,0,0c0,0,0,0,0,0c0,0,0,0,0,0c0,0,0,0,0,0c0,0,0,0,0,0s0,0,0,0c0,0,0,0,0,0
			c0,0,0,0,0,0c0,0,0,0,0,0c0,0,0,0,0,0c0,0,0,0-0.1,0c0,0,0,0,0,0L8.7,6.6V3.2c0,0,0-0.1,0-0.1c0,0,0,0,0,0c0,0,0,0,0-0.1
			c0,0,0,0,0-0.1c0,0,0,0,0,0c0,0,0,0,0-0.1c0,0,0,0,0,0c0,0,0,0,0-0.1c0,0,0,0,0,0c0,0,0,0,0,0c0,0,0,0,0,0c0,0,0,0,0,0
			c0,0,0,0,0,0c0,0,0,0,0,0c0,0,0,0,0,0c0,0,0,0,0,0c0,0,0,0,0,0c0,0,0,0,0,0c0,0,0,0,0,0c0,0,0,0-0.1,0c0,0,0,0,0,0
			c0,0-0.1,0-0.1,0l-5-2.2c-0.5-0.2-1,0-1.2,0.5c-0.2,0.5,0,1.1,0.5,1.3l4.4,2v4.4V9v5.4v4.8v6c0,2,1.4,3.7,3.3,3.9
			c-0.3,0.6-0.5,1.3-0.5,2c0,2.2,1.7,3.9,3.7,3.9c2,0,3.7-1.8,3.7-3.9c0-0.7-0.2-1.4-0.5-2h8.2c-0.3,0.6-0.5,1.3-0.5,2
			c0,2.2,1.7,3.9,3.7,3.9s3.7-1.8,3.7-3.9s-1.7-3.9-3.7-3.9H10.6c-1.1,0-1.9-0.9-1.9-2v-2.6C9.2,22.8,9.9,23,10.6,23z M15.1,31.1
			c0,1.1-0.8,2-1.9,2c-1,0-1.9-0.9-1.9-2c0-1.1,0.8-2,1.9-2C14.3,29.1,15.1,30,15.1,31.1z M29.8,31.1c0,1.1-0.8,2-1.9,2
			c-1,0-1.9-0.9-1.9-2c0-1.1,0.8-2,1.9-2C28.9,29.1,29.8,30,29.8,31.1z M28.8,21.1H10.6c-1.1,0-1.9-0.9-1.9-2v-4.8V8.9V8.6l22,3.2
			v7.3C30.7,20.2,29.8,21.1,28.8,21.1z"/>
	</g>
</g>
</svg>
