<?xml version="1.0" encoding="utf-8"?>
<!-- Generator: Adobe Illustrator 23.1.0, SVG Export Plug-In . SVG Version: 6.00 Build 0)  -->
<svg version="1.1" id="Calque_1" xmlns="http://www.w3.org/2000/svg" xmlns:xlink="http://www.w3.org/1999/xlink" x="0px" y="0px"
	 viewBox="0 0 35 35" style="enable-background:new 0 0 35 35;" xml:space="preserve">
<style type="text/css">
	.st0{fill:#FFFFFF;}
</style>
<path class="st0" d="M34.7,33.2l-8.5-8.5c2.3-2.6,3.7-6,3.7-9.8c0-8.2-6.7-14.9-15-14.9C6.7,0,0,6.7,0,14.9s6.7,14.9,14.9,14.9
	c3.7,0,7.2-1.4,9.8-3.7l8.5,8.5c0.2,0.2,0.5,0.3,0.7,0.3c0.3,0,0.5-0.1,0.7-0.3C35.1,34.3,35.1,33.6,34.7,33.2z M2.1,14.9
	c0-7.1,5.8-12.8,12.8-12.8c7.1,0,12.8,5.8,12.8,12.8c0,7.1-5.8,12.8-12.8,12.8C7.8,27.8,2.1,22,2.1,14.9z"/>
</svg>
