<svg width="35" height="35" viewBox="0 0 35 35" fill="none" xmlns="http://www.w3.org/2000/svg">
<path d="M34.6935 33.2151L26.1879 24.7095C28.4695 22.0865 29.8509 18.6641 29.8509 14.9235C29.8509 6.68958 23.1536 0 14.9274 0C6.69348 0 0.00390625 6.69734 0.00390625 14.9235C0.00390625 23.1497 6.70125 29.847 14.9274 29.847C18.668 29.847 22.0904 28.4656 24.7134 26.184L33.219 34.6896C33.4208 34.8914 33.6924 35 33.9562 35C34.2201 35 34.4917 34.8991 34.6935 34.6896C35.097 34.286 35.097 33.6186 34.6935 33.2151ZM2.09149 14.9235C2.09149 7.8459 7.8498 2.09534 14.9196 2.09534C21.9973 2.09534 27.7478 7.85366 27.7478 14.9235C27.7478 21.9933 21.9973 27.7594 14.9196 27.7594C7.8498 27.7594 2.09149 22.0011 2.09149 14.9235Z" fill="white"/>
</svg>
