<svg width="32" height="33" viewBox="0 0 32 33" fill="none" xmlns="http://www.w3.org/2000/svg">
<path d="M9.38085 21.8344H27.577C29.6403 21.8344 31.3235 20.1744 31.3235 18.1394V10.5888C31.3235 10.5821 31.3235 10.5688 31.3235 10.5621C31.3235 10.542 31.3235 10.5286 31.3235 10.5085C31.3235 10.4951 31.3235 10.4817 31.3167 10.4683C31.3167 10.455 31.3099 10.4349 31.3099 10.4215C31.3099 10.4081 31.3031 10.3947 31.3031 10.3813C31.2963 10.3679 31.2963 10.3546 31.2895 10.3345C31.2827 10.3211 31.2827 10.3077 31.276 10.2943C31.2692 10.2809 31.2692 10.2675 31.2624 10.2541C31.2556 10.2408 31.2488 10.2274 31.242 10.2073C31.2352 10.1939 31.2284 10.1805 31.2217 10.1738C31.2149 10.1604 31.2081 10.147 31.2013 10.1337C31.1945 10.1203 31.1877 10.1136 31.1809 10.1002C31.1742 10.0868 31.1606 10.0734 31.1538 10.06C31.147 10.0466 31.1402 10.0399 31.1266 10.0266C31.1199 10.0132 31.1063 10.0065 31.0995 9.99309C31.0927 9.9797 31.0791 9.97301 31.0723 9.95962C31.0656 9.94623 31.052 9.93954 31.0452 9.93285C31.0316 9.91946 31.0248 9.91276 31.0113 9.89938C30.9977 9.89268 30.9909 9.8793 30.9773 9.8726C30.9638 9.86591 30.9502 9.85252 30.9366 9.84583C30.923 9.83913 30.9162 9.83244 30.9027 9.82574C30.8891 9.81905 30.8755 9.81236 30.8619 9.79897C30.8484 9.79228 30.8348 9.78558 30.8212 9.77889C30.8076 9.77219 30.7941 9.7655 30.7805 9.75881C30.7669 9.75211 30.7534 9.74542 30.7398 9.73873C30.7262 9.73203 30.7126 9.73203 30.6991 9.72534C30.6855 9.71864 30.6651 9.71195 30.6515 9.71195C30.638 9.71195 30.6244 9.70526 30.6176 9.70526C30.5972 9.69856 30.5837 9.69856 30.5633 9.69856C30.5565 9.69856 30.5497 9.69187 30.5362 9.69187L7.47368 6.55248V3.37962C7.47368 3.34615 7.47368 3.31268 7.46689 3.28591C7.46689 3.27921 7.46689 3.27252 7.46011 3.25913C7.46011 3.23905 7.45332 3.21897 7.45332 3.19889C7.44653 3.17881 7.44653 3.16542 7.43975 3.14534C7.43975 3.13195 7.43296 3.12526 7.43296 3.11187C7.42617 3.09179 7.41938 3.07171 7.4126 3.05163C7.4126 3.04493 7.40581 3.03154 7.40581 3.02485C7.39902 3.00477 7.39224 2.99138 7.37866 2.9713C7.37188 2.96461 7.37188 2.95122 7.36509 2.94452C7.3583 2.93114 7.35151 2.91775 7.33794 2.90436C7.33115 2.89097 7.32437 2.88428 7.31758 2.87089C7.31079 2.85751 7.304 2.85081 7.29722 2.83742C7.29043 2.82404 7.27686 2.81065 7.27007 2.79726C7.26328 2.79057 7.25649 2.78387 7.24971 2.77718C7.23613 2.76379 7.22256 2.7504 7.20899 2.73702C7.2022 2.73032 7.19541 2.72363 7.18862 2.71694C7.17505 2.70355 7.16148 2.69016 7.14111 2.67677C7.13433 2.67008 7.12075 2.66339 7.11397 2.65669C7.10039 2.6433 7.08682 2.63661 7.07324 2.62322C7.05288 2.60983 7.03252 2.59645 7.01895 2.58975C7.01216 2.58306 7.00537 2.58306 6.99859 2.57637C6.97144 2.56298 6.9375 2.54959 6.91035 2.5362L1.90828 0.461127C1.43997 0.267007 0.903792 0.481209 0.706967 0.94308C0.510142 1.40495 0.727328 1.93376 1.19564 2.12788L5.63438 3.97537V8.07197V8.72127V13.7015V18.1528V23.7756C5.63438 25.6499 7.05967 27.2028 8.89897 27.4371C8.5664 27.986 8.36958 28.6286 8.36958 29.3114C8.36958 31.3262 10.0324 32.9595 12.0685 32.9595C14.1047 32.9595 15.7675 31.3195 15.7675 29.3114C15.7675 28.642 15.5842 28.0061 15.2585 27.4706H23.498C23.1722 28.0128 22.9889 28.642 22.9889 29.3114C22.9889 31.3262 24.6518 32.9595 26.6879 32.9595C28.724 32.9595 30.3868 31.3195 30.3868 29.3114C30.3868 27.3032 28.724 25.6633 26.6879 25.6633H9.38085C8.32207 25.6633 7.46689 24.8131 7.46689 23.7756V21.3257C8.02343 21.647 8.68178 21.8344 9.38085 21.8344ZM13.9418 29.3047C13.9418 30.3221 13.1002 31.1455 12.0753 31.1455C11.0505 31.1455 10.2089 30.3154 10.2089 29.3047C10.2089 28.2939 11.0505 27.4639 12.0753 27.4639C13.1002 27.4639 13.9418 28.2872 13.9418 29.3047ZM28.5611 29.3047C28.5611 30.3221 27.7195 31.1455 26.6947 31.1455C25.6698 31.1455 24.8282 30.3154 24.8282 29.3047C24.8282 28.2939 25.6698 27.4639 26.6947 27.4639C27.7195 27.4639 28.5611 28.2872 28.5611 29.3047ZM27.577 20.0271H9.38085C8.32207 20.0271 7.46689 19.177 7.46689 18.1394V13.6881V8.70788V8.37319L29.491 11.3653V18.1327C29.491 19.1837 28.629 20.0271 27.577 20.0271Z" fill="#FFE9D0"/>
</svg>
