<svg width="34" height="35" viewBox="0 0 34 35" fill="none" xmlns="http://www.w3.org/2000/svg">
<g clip-path="url(#clip0)">
<path d="M10.5715 23.0449H28.7676C30.8309 23.0449 32.5141 21.261 32.5141 19.0742V10.9603C32.5141 10.9531 32.5141 10.9387 32.5141 10.9315C32.5141 10.9099 32.5141 10.8955 32.5141 10.8739C32.5141 10.8596 32.5141 10.8452 32.5073 10.8308C32.5073 10.8164 32.5005 10.7948 32.5005 10.7804C32.5005 10.766 32.4937 10.7517 32.4937 10.7373C32.4869 10.7229 32.4869 10.7085 32.4801 10.6869C32.4733 10.6725 32.4733 10.6581 32.4665 10.6438C32.4598 10.6294 32.4598 10.615 32.453 10.6006C32.4462 10.5862 32.4394 10.5718 32.4326 10.5502C32.4258 10.5359 32.419 10.5215 32.4122 10.5143C32.4055 10.4999 32.3987 10.4855 32.3919 10.4711C32.3851 10.4567 32.3783 10.4495 32.3715 10.4352C32.3647 10.4208 32.3512 10.4064 32.3444 10.392C32.3376 10.3776 32.3308 10.3704 32.3172 10.356C32.3104 10.3416 32.2969 10.3344 32.2901 10.3201C32.2833 10.3057 32.2697 10.2985 32.2629 10.2841C32.2561 10.2697 32.2426 10.2625 32.2358 10.2553C32.2222 10.2409 32.2154 10.2337 32.2018 10.2194C32.1883 10.2122 32.1815 10.1978 32.1679 10.1906C32.1543 10.1834 32.1408 10.169 32.1272 10.1618C32.1136 10.1546 32.1068 10.1474 32.0933 10.1402C32.0797 10.133 32.0661 10.1258 32.0525 10.1115C32.039 10.1043 32.0254 10.0971 32.0118 10.0899C31.9982 10.0827 31.9847 10.0755 31.9711 10.0683C31.9575 10.0611 31.9439 10.0539 31.9304 10.0467C31.9168 10.0395 31.9032 10.0395 31.8896 10.0323C31.8761 10.0251 31.8557 10.0179 31.8421 10.0179C31.8286 10.0179 31.815 10.0108 31.8082 10.0108C31.7878 10.0036 31.7743 10.0036 31.7539 10.0036C31.7471 10.0036 31.7403 9.99637 31.7268 9.99637L8.66429 6.62274V3.21315C8.66429 3.17719 8.66429 3.14122 8.6575 3.11245C8.6575 3.10526 8.6575 3.09806 8.65071 3.08368C8.65071 3.0621 8.64393 3.04052 8.64393 3.01894C8.63714 2.99736 8.63714 2.98297 8.63035 2.96139C8.63035 2.947 8.62357 2.93981 8.62357 2.92543C8.61678 2.90385 8.60999 2.88227 8.6032 2.86069C8.6032 2.85349 8.59642 2.83911 8.59642 2.83191C8.58963 2.81033 8.58284 2.79595 8.56927 2.77437C8.56248 2.76717 8.56248 2.75279 8.5557 2.74559C8.54891 2.73121 8.54212 2.71682 8.52855 2.70244C8.52176 2.68805 8.51497 2.68086 8.50819 2.66647C8.5014 2.65208 8.49461 2.64489 8.48782 2.6305C8.48104 2.61612 8.46746 2.60173 8.46068 2.58734C8.45389 2.58015 8.4471 2.57296 8.44031 2.56576C8.42674 2.55138 8.41317 2.53699 8.39959 2.5226C8.39281 2.51541 8.38602 2.50822 8.37923 2.50102C8.36566 2.48664 8.35208 2.47225 8.33172 2.45787C8.32493 2.45067 8.31136 2.44348 8.30457 2.43629C8.291 2.4219 8.27743 2.41471 8.26385 2.40032C8.24349 2.38593 8.22313 2.37155 8.20955 2.36435C8.20277 2.35716 8.19598 2.35716 8.18919 2.34997C8.16205 2.33558 8.12811 2.32119 8.10096 2.30681L3.09889 0.0769081C2.63058 -0.131695 2.0944 0.0984878 1.89758 0.59482C1.70075 1.09115 1.91794 1.65942 2.38625 1.86802L6.82499 3.85335V8.2556V8.95335V14.3051V19.0886V25.1309C6.82499 27.145 8.25028 28.8138 10.0896 29.0656C9.75701 29.6554 9.56018 30.346 9.56018 31.0797C9.56018 33.2449 11.223 35 13.2591 35C15.2953 35 16.9581 33.2377 16.9581 31.0797C16.9581 30.3604 16.7748 29.677 16.4491 29.1016H24.6886C24.3628 29.6842 24.1795 30.3604 24.1795 31.0797C24.1795 33.2449 25.8424 35 27.8785 35C29.9146 35 31.5774 33.2377 31.5774 31.0797C31.5774 28.9217 29.9146 27.1594 27.8785 27.1594H10.5715C9.51267 27.1594 8.6575 26.2459 8.6575 25.1309V22.4982C9.21404 22.8435 9.87239 23.0449 10.5715 23.0449ZM15.1324 31.0725C15.1324 32.1659 14.2908 33.0507 13.2659 33.0507C12.2411 33.0507 11.3995 32.1587 11.3995 31.0725C11.3995 29.9863 12.2411 29.0944 13.2659 29.0944C14.2908 29.0944 15.1324 29.9791 15.1324 31.0725ZM29.7517 31.0725C29.7517 32.1659 28.9101 33.0507 27.8853 33.0507C26.8604 33.0507 26.0188 32.1587 26.0188 31.0725C26.0188 29.9863 26.8604 29.0944 27.8853 29.0944C28.9101 29.0944 29.7517 29.9791 29.7517 31.0725ZM28.7676 21.1027H10.5715C9.51267 21.1027 8.6575 20.1892 8.6575 19.0742V14.2907V8.93896V8.5793L30.6815 11.7947V19.067C30.6815 20.1964 29.8196 21.1027 28.7676 21.1027Z" fill="white"/>
</g>
<defs>
<clipPath id="clip0">
<rect width="33.0238" height="35" fill="white" transform="translate(0.656799)"/>
</clipPath>
</defs>
</svg>
