<svg width="36" height="33" viewBox="0 0 36 33" fill="none" xmlns="http://www.w3.org/2000/svg">
<path d="M35.5029 31.2985L26.9974 23.3835C29.279 20.9426 30.6604 17.7578 30.6604 14.2769C30.6604 6.6147 23.963 0.389587 15.7369 0.389587C7.50293 0.389587 0.813354 6.62193 0.813354 14.2769C0.813354 21.932 7.51069 28.1643 15.7369 28.1643C19.4774 28.1643 22.8998 26.8788 25.5229 24.7556L34.0284 32.6706C34.2302 32.8584 34.5018 32.9595 34.7657 32.9595C35.0295 32.9595 35.3012 32.8656 35.5029 32.6706C35.9065 32.2951 35.9065 31.674 35.5029 31.2985ZM2.90094 14.2769C2.90094 7.69074 8.65925 2.33945 15.7291 2.33945C22.8067 2.33945 28.5573 7.69796 28.5573 14.2769C28.5573 20.8559 22.8067 26.2217 15.7291 26.2217C8.65925 26.2217 2.90094 20.8631 2.90094 14.2769Z" fill="#FFE9D0"/>
</svg>
