<svg width="21" height="23" viewBox="0 0 21 23" fill="none" xmlns="http://www.w3.org/2000/svg">
<g clip-path="url(#clip0)">
<path d="M6.30481 15.2353H17.8758C19.1879 15.2353 20.2582 14.114 20.2582 12.7395V7.63929C20.2582 7.63476 20.2582 7.62572 20.2582 7.6212C20.2582 7.60764 20.2582 7.59859 20.2582 7.58503C20.2582 7.57599 20.2582 7.56694 20.2539 7.5579C20.2539 7.54886 20.2496 7.53529 20.2496 7.52625C20.2496 7.51721 20.2453 7.50816 20.2453 7.49912C20.241 7.49008 20.241 7.48104 20.2366 7.46747C20.2323 7.45843 20.2323 7.44938 20.228 7.44034C20.2237 7.4313 20.2237 7.42226 20.2194 7.41321C20.2151 7.40417 20.2108 7.39513 20.2064 7.38156C20.2021 7.37252 20.1978 7.36348 20.1935 7.35896C20.1892 7.34991 20.1849 7.34087 20.1805 7.33183C20.1762 7.32278 20.1719 7.31826 20.1676 7.30922C20.1633 7.30018 20.1546 7.29113 20.1503 7.28209C20.146 7.27305 20.1417 7.26853 20.1331 7.25948C20.1288 7.25044 20.1201 7.24592 20.1158 7.23688C20.1115 7.22783 20.1029 7.22331 20.0985 7.21427C20.0942 7.20523 20.0856 7.20071 20.0813 7.19618C20.0726 7.18714 20.0683 7.18262 20.0597 7.17358C20.0511 7.16905 20.0467 7.16001 20.0381 7.15549C20.0295 7.15097 20.0209 7.14193 20.0122 7.1374C20.0036 7.13288 19.9993 7.12836 19.9906 7.12384C19.982 7.11932 19.9734 7.1148 19.9647 7.10575C19.9561 7.10123 19.9475 7.09671 19.9388 7.09219C19.9302 7.08767 19.9216 7.08315 19.913 7.07863C19.9043 7.0741 19.8957 7.06958 19.8871 7.06506C19.8784 7.06054 19.8698 7.06054 19.8612 7.05602C19.8525 7.0515 19.8396 7.04698 19.831 7.04698C19.8223 7.04698 19.8137 7.04245 19.8094 7.04245C19.7964 7.03793 19.7878 7.03793 19.7748 7.03793C19.7705 7.03793 19.7662 7.03341 19.7576 7.03341L5.09203 4.91285V2.76968C5.09203 2.74707 5.09203 2.72446 5.08772 2.70638C5.08772 2.70186 5.08772 2.69733 5.0834 2.68829C5.0834 2.67473 5.07909 2.66116 5.07909 2.6476C5.07477 2.63403 5.07477 2.62499 5.07045 2.61143C5.07045 2.60238 5.06614 2.59786 5.06614 2.58882C5.06182 2.57526 5.05751 2.56169 5.05319 2.54813C5.05319 2.54361 5.04887 2.53456 5.04887 2.53004C5.04456 2.51648 5.04024 2.50743 5.03161 2.49387C5.02729 2.48935 5.02729 2.4803 5.02298 2.47578C5.01866 2.46674 5.01435 2.4577 5.00572 2.44865C5.0014 2.43961 4.99708 2.43509 4.99277 2.42605C4.98845 2.417 4.98414 2.41248 4.97982 2.40344C4.9755 2.3944 4.96687 2.38535 4.96256 2.37631C4.95824 2.37179 4.95392 2.36727 4.94961 2.36275C4.94098 2.3537 4.93234 2.34466 4.92371 2.33562C4.9194 2.3311 4.91508 2.32658 4.91076 2.32205C4.90213 2.31301 4.8935 2.30397 4.88055 2.29492C4.87624 2.2904 4.86761 2.28588 4.86329 2.28136C4.85466 2.27232 4.84603 2.2678 4.83739 2.25875C4.82445 2.24971 4.8115 2.24067 4.80287 2.23615C4.79855 2.23162 4.79423 2.23162 4.78992 2.2271C4.77265 2.21806 4.75107 2.20902 4.73381 2.19997L1.55297 0.798323C1.25517 0.667201 0.914209 0.811887 0.789046 1.12387C0.663884 1.43585 0.801994 1.79304 1.09979 1.92417L3.92242 3.17209V5.93922V6.3778V9.74176V12.7485V16.5466C3.92242 17.8126 4.82876 18.8615 5.99838 19.0198C5.7869 19.3906 5.66174 19.8246 5.66174 20.2858C5.66174 21.6468 6.71914 22.75 8.01392 22.75C9.3087 22.75 10.3661 21.6422 10.3661 20.2858C10.3661 19.8337 10.2496 19.4041 10.0424 19.0424H15.282C15.0748 19.4086 14.9583 19.8337 14.9583 20.2858C14.9583 21.6468 16.0157 22.75 17.3104 22.75C18.6052 22.75 19.6626 21.6422 19.6626 20.2858C19.6626 18.9294 18.6052 17.8216 17.3104 17.8216H6.30481C5.63153 17.8216 5.08772 17.2474 5.08772 16.5466V14.8917C5.44162 15.1087 5.86027 15.2353 6.30481 15.2353ZM9.20512 20.2813C9.20512 20.9685 8.66994 21.5247 8.01824 21.5247C7.36653 21.5247 6.83136 20.964 6.83136 20.2813C6.83136 19.5985 7.36653 19.0379 8.01824 19.0379C8.66994 19.0379 9.20512 19.594 9.20512 20.2813ZM18.5016 20.2813C18.5016 20.9685 17.9665 21.5247 17.3148 21.5247C16.6631 21.5247 16.1279 20.964 16.1279 20.2813C16.1279 19.5985 16.6631 19.0379 17.3148 19.0379C17.9665 19.0379 18.5016 19.594 18.5016 20.2813ZM17.8758 14.0145H6.30481C5.63153 14.0145 5.08772 13.4403 5.08772 12.7395V9.73272V6.36876V6.14268L19.0929 8.16377V12.735C19.0929 13.4448 18.5448 14.0145 17.8758 14.0145Z" fill="white"/>
</g>
<defs>
<clipPath id="clip0">
<rect width="21" height="22" fill="white" transform="translate(0 0.75)"/>
</clipPath>
</defs>
</svg>
