<svg width="350" height="530" viewBox="0 0 350 530" fill="none" xmlns="http://www.w3.org/2000/svg">
<rect width="350" height="529.412" fill="#AFAFAF"/>
<path fill-rule="evenodd" clip-rule="evenodd" d="M161.844 164.029C158.684 164.029 156.124 166.589 156.124 169.749V229.814C156.124 231.387 157.412 232.675 158.984 232.675C159.77 232.675 160.485 232.361 161.001 231.845L168.408 224.479C169.525 223.351 171.34 223.351 172.456 224.479L179.849 231.845C180.365 232.36 181.08 232.675 181.866 232.675C183.439 232.675 184.726 231.387 184.726 229.814V174.04C184.726 172.381 186.014 171.179 187.587 171.179H191.162C193.135 171.179 194.738 169.577 194.738 167.604C194.738 165.631 193.135 164.029 191.162 164.029H161.844V164.029Z" fill="#6D6D6D"/>
<path d="M122.426 345.476C122.522 345.476 122.618 345.496 122.714 345.536C122.81 345.568 122.902 345.628 122.99 345.716L124.598 347.408C123.894 348.328 123.01 349.024 121.946 349.496C120.89 349.96 119.638 350.192 118.19 350.192C116.862 350.192 115.67 349.968 114.614 349.52C113.566 349.064 112.674 348.44 111.938 347.648C111.21 346.848 110.65 345.904 110.258 344.816C109.866 343.72 109.67 342.532 109.67 341.252C109.67 339.948 109.894 338.752 110.342 337.664C110.79 336.568 111.414 335.624 112.214 334.832C113.022 334.04 113.986 333.424 115.106 332.984C116.226 332.544 117.462 332.324 118.814 332.324C119.47 332.324 120.086 332.384 120.662 332.504C121.246 332.616 121.79 332.776 122.294 332.984C122.798 333.184 123.262 333.428 123.686 333.716C124.11 333.996 124.486 334.308 124.814 334.652L123.446 336.488C123.358 336.6 123.254 336.704 123.134 336.8C123.014 336.888 122.846 336.932 122.63 336.932C122.486 336.932 122.35 336.9 122.222 336.836C122.094 336.772 121.958 336.696 121.814 336.608C121.67 336.512 121.51 336.412 121.334 336.308C121.166 336.196 120.962 336.096 120.722 336.008C120.49 335.912 120.214 335.832 119.894 335.768C119.582 335.704 119.214 335.672 118.79 335.672C118.054 335.672 117.382 335.804 116.774 336.068C116.166 336.324 115.642 336.696 115.202 337.184C114.77 337.664 114.43 338.248 114.182 338.936C113.942 339.624 113.822 340.396 113.822 341.252C113.822 342.148 113.942 342.944 114.182 343.64C114.43 344.336 114.762 344.924 115.178 345.404C115.602 345.876 116.094 346.236 116.654 346.484C117.214 346.732 117.814 346.856 118.454 346.856C118.822 346.856 119.158 346.84 119.462 346.808C119.766 346.768 120.046 346.704 120.302 346.616C120.566 346.528 120.814 346.416 121.046 346.28C121.286 346.136 121.526 345.96 121.766 345.752C121.862 345.672 121.966 345.608 122.078 345.56C122.19 345.504 122.306 345.476 122.426 345.476ZM131.996 337.364C132.94 337.364 133.8 337.512 134.576 337.808C135.352 338.104 136.016 338.528 136.568 339.08C137.128 339.632 137.56 340.304 137.864 341.096C138.176 341.88 138.332 342.764 138.332 343.748C138.332 344.74 138.176 345.636 137.864 346.436C137.56 347.228 137.128 347.904 136.568 348.464C136.016 349.016 135.352 349.444 134.576 349.748C133.8 350.044 132.94 350.192 131.996 350.192C131.044 350.192 130.176 350.044 129.392 349.748C128.616 349.444 127.944 349.016 127.376 348.464C126.816 347.904 126.38 347.228 126.068 346.436C125.764 345.636 125.612 344.74 125.612 343.748C125.612 342.764 125.764 341.88 126.068 341.096C126.38 340.304 126.816 339.632 127.376 339.08C127.944 338.528 128.616 338.104 129.392 337.808C130.176 337.512 131.044 337.364 131.996 337.364ZM131.996 347.432C132.852 347.432 133.48 347.132 133.88 346.532C134.288 345.924 134.492 345.004 134.492 343.772C134.492 342.54 134.288 341.624 133.88 341.024C133.48 340.424 132.852 340.124 131.996 340.124C131.116 340.124 130.472 340.424 130.064 341.024C129.656 341.624 129.452 342.54 129.452 343.772C129.452 345.004 129.656 345.924 130.064 346.532C130.472 347.132 131.116 347.432 131.996 347.432ZM143.854 337.556V345.452C143.854 346.068 143.994 346.544 144.274 346.88C144.554 347.216 144.966 347.384 145.51 347.384C145.918 347.384 146.298 347.3 146.65 347.132C147.01 346.964 147.358 346.728 147.694 346.424V337.556H151.414V350H149.11C148.646 350 148.342 349.792 148.198 349.376L147.97 348.656C147.73 348.888 147.482 349.1 147.226 349.292C146.97 349.476 146.694 349.636 146.398 349.772C146.11 349.9 145.798 350 145.462 350.072C145.126 350.152 144.758 350.192 144.358 350.192C143.678 350.192 143.074 350.076 142.546 349.844C142.026 349.604 141.586 349.272 141.226 348.848C140.866 348.424 140.594 347.924 140.41 347.348C140.226 346.772 140.134 346.14 140.134 345.452V337.556H143.854ZM161.183 350H157.799L152.975 337.556H156.071C156.335 337.556 156.555 337.62 156.731 337.748C156.915 337.868 157.039 338.02 157.103 338.204L158.831 343.784C158.967 344.24 159.095 344.684 159.215 345.116C159.343 345.548 159.451 345.98 159.539 346.412C159.627 345.98 159.735 345.548 159.863 345.116C159.991 344.684 160.127 344.24 160.271 343.784L162.071 338.204C162.135 338.02 162.255 337.868 162.431 337.748C162.607 337.62 162.815 337.556 163.055 337.556H166.007L161.183 350ZM172.42 337.364C173.244 337.364 173.996 337.492 174.676 337.748C175.364 338.004 175.952 338.376 176.44 338.864C176.936 339.352 177.32 339.952 177.592 340.664C177.872 341.368 178.012 342.168 178.012 343.064C178.012 343.344 178 343.572 177.976 343.748C177.952 343.924 177.908 344.064 177.844 344.168C177.78 344.272 177.692 344.344 177.58 344.384C177.476 344.424 177.34 344.444 177.172 344.444H169.996C170.116 345.484 170.432 346.24 170.944 346.712C171.456 347.176 172.116 347.408 172.924 347.408C173.356 347.408 173.728 347.356 174.04 347.252C174.352 347.148 174.628 347.032 174.868 346.904C175.116 346.776 175.34 346.66 175.54 346.556C175.748 346.452 175.964 346.4 176.188 346.4C176.484 346.4 176.708 346.508 176.86 346.724L177.94 348.056C177.556 348.496 177.14 348.856 176.692 349.136C176.252 349.408 175.796 349.624 175.324 349.784C174.86 349.936 174.392 350.04 173.92 350.096C173.456 350.16 173.012 350.192 172.588 350.192C171.716 350.192 170.896 350.052 170.128 349.772C169.368 349.484 168.7 349.06 168.124 348.5C167.556 347.94 167.104 347.244 166.768 346.412C166.44 345.58 166.276 344.612 166.276 343.508C166.276 342.676 166.416 341.888 166.696 341.144C166.984 340.4 167.392 339.748 167.92 339.188C168.456 338.628 169.1 338.184 169.852 337.856C170.612 337.528 171.468 337.364 172.42 337.364ZM172.492 339.932C171.78 339.932 171.224 340.136 170.824 340.544C170.424 340.944 170.16 341.524 170.032 342.284H174.676C174.676 341.988 174.636 341.7 174.556 341.42C174.484 341.14 174.36 340.892 174.184 340.676C174.016 340.452 173.792 340.272 173.512 340.136C173.232 340 172.892 339.932 172.492 339.932ZM180.147 350V337.556H182.355C182.539 337.556 182.691 337.572 182.811 337.604C182.939 337.636 183.043 337.688 183.123 337.76C183.211 337.824 183.275 337.912 183.315 338.024C183.363 338.136 183.403 338.272 183.435 338.432L183.639 339.596C184.095 338.892 184.607 338.336 185.175 337.928C185.743 337.52 186.363 337.316 187.035 337.316C187.603 337.316 188.059 337.452 188.403 337.724L187.923 340.46C187.891 340.628 187.827 340.748 187.731 340.82C187.635 340.884 187.507 340.916 187.347 340.916C187.211 340.916 187.051 340.9 186.867 340.868C186.683 340.828 186.451 340.808 186.171 340.808C185.195 340.808 184.427 341.328 183.867 342.368V350H180.147ZM194.429 350.192C193.837 350.192 193.313 350.108 192.857 349.94C192.409 349.764 192.029 349.52 191.717 349.208C191.413 348.888 191.181 348.504 191.021 348.056C190.861 347.608 190.781 347.108 190.781 346.556V340.124H189.725C189.533 340.124 189.369 340.064 189.233 339.944C189.097 339.816 189.029 339.632 189.029 339.392V337.94L191.009 337.556L191.741 334.52C191.837 334.136 192.109 333.944 192.557 333.944H194.501V337.58H197.525V340.124H194.501V346.304C194.501 346.592 194.569 346.832 194.705 347.024C194.849 347.208 195.053 347.3 195.317 347.3C195.453 347.3 195.565 347.288 195.653 347.264C195.749 347.232 195.829 347.2 195.893 347.168C195.965 347.128 196.029 347.096 196.085 347.072C196.149 347.04 196.221 347.024 196.301 347.024C196.413 347.024 196.501 347.052 196.565 347.108C196.637 347.156 196.709 347.236 196.781 347.348L197.909 349.112C197.429 349.472 196.889 349.744 196.289 349.928C195.689 350.104 195.069 350.192 194.429 350.192ZM203.15 337.556V345.452C203.15 346.068 203.29 346.544 203.57 346.88C203.85 347.216 204.262 347.384 204.806 347.384C205.214 347.384 205.594 347.3 205.946 347.132C206.306 346.964 206.654 346.728 206.99 346.424V337.556H210.71V350H208.406C207.942 350 207.638 349.792 207.494 349.376L207.266 348.656C207.026 348.888 206.778 349.1 206.522 349.292C206.266 349.476 205.99 349.636 205.694 349.772C205.406 349.9 205.094 350 204.758 350.072C204.422 350.152 204.054 350.192 203.654 350.192C202.974 350.192 202.37 350.076 201.842 349.844C201.322 349.604 200.882 349.272 200.522 348.848C200.162 348.424 199.89 347.924 199.706 347.348C199.522 346.772 199.43 346.14 199.43 345.452V337.556H203.15ZM213.592 350V337.556H215.8C215.984 337.556 216.136 337.572 216.256 337.604C216.384 337.636 216.488 337.688 216.568 337.76C216.656 337.824 216.72 337.912 216.76 338.024C216.808 338.136 216.848 338.272 216.88 338.432L217.084 339.596C217.54 338.892 218.052 338.336 218.62 337.928C219.188 337.52 219.808 337.316 220.48 337.316C221.048 337.316 221.504 337.452 221.848 337.724L221.368 340.46C221.336 340.628 221.272 340.748 221.176 340.82C221.08 340.884 220.952 340.916 220.792 340.916C220.656 340.916 220.496 340.9 220.312 340.868C220.128 340.828 219.896 340.808 219.616 340.808C218.64 340.808 217.872 341.328 217.312 342.368V350H213.592ZM228.834 337.364C229.658 337.364 230.41 337.492 231.09 337.748C231.778 338.004 232.366 338.376 232.854 338.864C233.35 339.352 233.734 339.952 234.006 340.664C234.286 341.368 234.426 342.168 234.426 343.064C234.426 343.344 234.414 343.572 234.39 343.748C234.366 343.924 234.322 344.064 234.258 344.168C234.194 344.272 234.106 344.344 233.994 344.384C233.89 344.424 233.754 344.444 233.586 344.444H226.41C226.53 345.484 226.846 346.24 227.358 346.712C227.87 347.176 228.53 347.408 229.338 347.408C229.77 347.408 230.142 347.356 230.454 347.252C230.766 347.148 231.042 347.032 231.282 346.904C231.53 346.776 231.754 346.66 231.954 346.556C232.162 346.452 232.378 346.4 232.602 346.4C232.898 346.4 233.122 346.508 233.274 346.724L234.354 348.056C233.97 348.496 233.554 348.856 233.106 349.136C232.666 349.408 232.21 349.624 231.738 349.784C231.274 349.936 230.806 350.04 230.334 350.096C229.87 350.16 229.426 350.192 229.002 350.192C228.13 350.192 227.31 350.052 226.542 349.772C225.782 349.484 225.114 349.06 224.538 348.5C223.97 347.94 223.518 347.244 223.182 346.412C222.854 345.58 222.69 344.612 222.69 343.508C222.69 342.676 222.83 341.888 223.11 341.144C223.398 340.4 223.806 339.748 224.334 339.188C224.87 338.628 225.514 338.184 226.266 337.856C227.026 337.528 227.882 337.364 228.834 337.364ZM228.906 339.932C228.194 339.932 227.638 340.136 227.238 340.544C226.838 340.944 226.574 341.524 226.446 342.284H231.09C231.09 341.988 231.05 341.7 230.97 341.42C230.898 341.14 230.774 340.892 230.598 340.676C230.43 340.452 230.206 340.272 229.926 340.136C229.646 340 229.306 339.932 228.906 339.932ZM109.6 380V367.556H111.904C112.136 367.556 112.328 367.608 112.48 367.712C112.64 367.816 112.752 367.972 112.816 368.18L113.032 368.9C113.272 368.676 113.52 368.468 113.776 368.276C114.032 368.084 114.304 367.924 114.592 367.796C114.888 367.66 115.204 367.556 115.54 367.484C115.884 367.404 116.256 367.364 116.656 367.364C117.336 367.364 117.936 367.484 118.456 367.724C118.984 367.956 119.428 368.284 119.788 368.708C120.148 369.124 120.42 369.624 120.604 370.208C120.788 370.784 120.88 371.412 120.88 372.092V380H117.16V372.092C117.16 371.484 117.02 371.012 116.74 370.676C116.46 370.332 116.048 370.16 115.504 370.16C115.096 370.16 114.712 370.248 114.352 370.424C113.992 370.6 113.648 370.836 113.32 371.132V380H109.6ZM129.066 367.364C130.01 367.364 130.87 367.512 131.646 367.808C132.422 368.104 133.086 368.528 133.638 369.08C134.198 369.632 134.63 370.304 134.934 371.096C135.246 371.88 135.402 372.764 135.402 373.748C135.402 374.74 135.246 375.636 134.934 376.436C134.63 377.228 134.198 377.904 133.638 378.464C133.086 379.016 132.422 379.444 131.646 379.748C130.87 380.044 130.01 380.192 129.066 380.192C128.114 380.192 127.246 380.044 126.462 379.748C125.686 379.444 125.014 379.016 124.446 378.464C123.886 377.904 123.45 377.228 123.138 376.436C122.834 375.636 122.682 374.74 122.682 373.748C122.682 372.764 122.834 371.88 123.138 371.096C123.45 370.304 123.886 369.632 124.446 369.08C125.014 368.528 125.686 368.104 126.462 367.808C127.246 367.512 128.114 367.364 129.066 367.364ZM129.066 377.432C129.922 377.432 130.55 377.132 130.95 376.532C131.358 375.924 131.562 375.004 131.562 373.772C131.562 372.54 131.358 371.624 130.95 371.024C130.55 370.424 129.922 370.124 129.066 370.124C128.186 370.124 127.542 370.424 127.134 371.024C126.726 371.624 126.522 372.54 126.522 373.772C126.522 375.004 126.726 375.924 127.134 376.532C127.542 377.132 128.186 377.432 129.066 377.432ZM137.444 380V367.556H139.748C139.98 367.556 140.172 367.608 140.324 367.712C140.484 367.816 140.596 367.972 140.66 368.18L140.876 368.9C141.116 368.676 141.364 368.468 141.62 368.276C141.876 368.084 142.148 367.924 142.436 367.796C142.732 367.66 143.048 367.556 143.384 367.484C143.728 367.404 144.1 367.364 144.5 367.364C145.18 367.364 145.78 367.484 146.3 367.724C146.828 367.956 147.272 368.284 147.632 368.708C147.992 369.124 148.264 369.624 148.448 370.208C148.632 370.784 148.724 371.412 148.724 372.092V380H145.004V372.092C145.004 371.484 144.864 371.012 144.584 370.676C144.304 370.332 143.892 370.16 143.348 370.16C142.94 370.16 142.556 370.248 142.196 370.424C141.836 370.6 141.492 370.836 141.164 371.132V380H137.444ZM160.374 380.192C159.782 380.192 159.258 380.108 158.802 379.94C158.354 379.764 157.974 379.52 157.662 379.208C157.358 378.888 157.126 378.504 156.966 378.056C156.806 377.608 156.726 377.108 156.726 376.556V370.124H155.67C155.478 370.124 155.314 370.064 155.178 369.944C155.042 369.816 154.974 369.632 154.974 369.392V367.94L156.954 367.556L157.686 364.52C157.782 364.136 158.054 363.944 158.502 363.944H160.446V367.58H163.47V370.124H160.446V376.304C160.446 376.592 160.514 376.832 160.65 377.024C160.794 377.208 160.998 377.3 161.262 377.3C161.398 377.3 161.51 377.288 161.598 377.264C161.694 377.232 161.774 377.2 161.838 377.168C161.91 377.128 161.974 377.096 162.03 377.072C162.094 377.04 162.166 377.024 162.246 377.024C162.358 377.024 162.446 377.052 162.51 377.108C162.582 377.156 162.654 377.236 162.726 377.348L163.854 379.112C163.374 379.472 162.834 379.744 162.234 379.928C161.634 380.104 161.014 380.192 160.374 380.192ZM165.616 380V367.556H167.824C168.008 367.556 168.16 367.572 168.28 367.604C168.408 367.636 168.512 367.688 168.592 367.76C168.68 367.824 168.744 367.912 168.784 368.024C168.832 368.136 168.872 368.272 168.904 368.432L169.108 369.596C169.564 368.892 170.076 368.336 170.644 367.928C171.212 367.52 171.832 367.316 172.504 367.316C173.072 367.316 173.528 367.452 173.872 367.724L173.392 370.46C173.36 370.628 173.296 370.748 173.2 370.82C173.104 370.884 172.976 370.916 172.816 370.916C172.68 370.916 172.52 370.9 172.336 370.868C172.152 370.828 171.92 370.808 171.64 370.808C170.664 370.808 169.896 371.328 169.336 372.368V380H165.616ZM181.074 367.364C182.018 367.364 182.878 367.512 183.654 367.808C184.43 368.104 185.094 368.528 185.646 369.08C186.206 369.632 186.638 370.304 186.942 371.096C187.254 371.88 187.41 372.764 187.41 373.748C187.41 374.74 187.254 375.636 186.942 376.436C186.638 377.228 186.206 377.904 185.646 378.464C185.094 379.016 184.43 379.444 183.654 379.748C182.878 380.044 182.018 380.192 181.074 380.192C180.122 380.192 179.254 380.044 178.47 379.748C177.694 379.444 177.022 379.016 176.454 378.464C175.894 377.904 175.458 377.228 175.146 376.436C174.842 375.636 174.69 374.74 174.69 373.748C174.69 372.764 174.842 371.88 175.146 371.096C175.458 370.304 175.894 369.632 176.454 369.08C177.022 368.528 177.694 368.104 178.47 367.808C179.254 367.512 180.122 367.364 181.074 367.364ZM181.074 377.432C181.93 377.432 182.558 377.132 182.958 376.532C183.366 375.924 183.57 375.004 183.57 373.772C183.57 372.54 183.366 371.624 182.958 371.024C182.558 370.424 181.93 370.124 181.074 370.124C180.194 370.124 179.55 370.424 179.142 371.024C178.734 371.624 178.53 372.54 178.53 373.772C178.53 375.004 178.734 375.924 179.142 376.532C179.55 377.132 180.194 377.432 181.074 377.432ZM192.932 367.556V375.452C192.932 376.068 193.072 376.544 193.352 376.88C193.632 377.216 194.044 377.384 194.588 377.384C194.996 377.384 195.376 377.3 195.728 377.132C196.088 376.964 196.436 376.728 196.772 376.424V367.556H200.492V380H198.188C197.724 380 197.42 379.792 197.276 379.376L197.048 378.656C196.808 378.888 196.56 379.1 196.304 379.292C196.048 379.476 195.772 379.636 195.476 379.772C195.188 379.9 194.876 380 194.54 380.072C194.204 380.152 193.836 380.192 193.436 380.192C192.756 380.192 192.152 380.076 191.624 379.844C191.104 379.604 190.664 379.272 190.304 378.848C189.944 378.424 189.672 377.924 189.488 377.348C189.304 376.772 189.212 376.14 189.212 375.452V367.556H192.932ZM210.262 380H206.878L202.054 367.556H205.15C205.414 367.556 205.634 367.62 205.81 367.748C205.994 367.868 206.118 368.02 206.182 368.204L207.91 373.784C208.046 374.24 208.174 374.684 208.294 375.116C208.422 375.548 208.53 375.98 208.618 376.412C208.706 375.98 208.814 375.548 208.942 375.116C209.07 374.684 209.206 374.24 209.35 373.784L211.15 368.204C211.214 368.02 211.334 367.868 211.51 367.748C211.686 367.62 211.894 367.556 212.134 367.556H215.086L210.262 380ZM221.498 367.364C222.322 367.364 223.074 367.492 223.754 367.748C224.442 368.004 225.03 368.376 225.518 368.864C226.014 369.352 226.398 369.952 226.67 370.664C226.95 371.368 227.09 372.168 227.09 373.064C227.09 373.344 227.078 373.572 227.054 373.748C227.03 373.924 226.986 374.064 226.922 374.168C226.858 374.272 226.77 374.344 226.658 374.384C226.554 374.424 226.418 374.444 226.25 374.444H219.074C219.194 375.484 219.51 376.24 220.022 376.712C220.534 377.176 221.194 377.408 222.002 377.408C222.434 377.408 222.806 377.356 223.118 377.252C223.43 377.148 223.706 377.032 223.946 376.904C224.194 376.776 224.418 376.66 224.618 376.556C224.826 376.452 225.042 376.4 225.266 376.4C225.562 376.4 225.786 376.508 225.938 376.724L227.018 378.056C226.634 378.496 226.218 378.856 225.77 379.136C225.33 379.408 224.874 379.624 224.402 379.784C223.938 379.936 223.47 380.04 222.998 380.096C222.534 380.16 222.09 380.192 221.666 380.192C220.794 380.192 219.974 380.052 219.206 379.772C218.446 379.484 217.778 379.06 217.202 378.5C216.634 377.94 216.182 377.244 215.846 376.412C215.518 375.58 215.354 374.612 215.354 373.508C215.354 372.676 215.494 371.888 215.774 371.144C216.062 370.4 216.47 369.748 216.998 369.188C217.534 368.628 218.178 368.184 218.93 367.856C219.69 367.528 220.546 367.364 221.498 367.364ZM221.57 369.932C220.858 369.932 220.302 370.136 219.902 370.544C219.502 370.944 219.238 371.524 219.11 372.284H223.754C223.754 371.988 223.714 371.7 223.634 371.42C223.562 371.14 223.438 370.892 223.262 370.676C223.094 370.452 222.87 370.272 222.59 370.136C222.31 370 221.97 369.932 221.57 369.932ZM226.346 362.324L223.226 365.48C223.042 365.664 222.866 365.796 222.698 365.876C222.53 365.948 222.306 365.984 222.026 365.984H219.794L221.426 363.044C221.562 362.812 221.722 362.636 221.906 362.516C222.09 362.388 222.37 362.324 222.746 362.324H226.346ZM234.553 367.364C235.377 367.364 236.129 367.492 236.809 367.748C237.497 368.004 238.085 368.376 238.573 368.864C239.069 369.352 239.453 369.952 239.725 370.664C240.005 371.368 240.145 372.168 240.145 373.064C240.145 373.344 240.133 373.572 240.109 373.748C240.085 373.924 240.041 374.064 239.977 374.168C239.913 374.272 239.825 374.344 239.713 374.384C239.609 374.424 239.473 374.444 239.305 374.444H232.129C232.249 375.484 232.565 376.24 233.077 376.712C233.589 377.176 234.249 377.408 235.057 377.408C235.489 377.408 235.861 377.356 236.173 377.252C236.485 377.148 236.761 377.032 237.001 376.904C237.249 376.776 237.473 376.66 237.673 376.556C237.881 376.452 238.097 376.4 238.321 376.4C238.617 376.4 238.841 376.508 238.993 376.724L240.073 378.056C239.689 378.496 239.273 378.856 238.825 379.136C238.385 379.408 237.929 379.624 237.457 379.784C236.993 379.936 236.525 380.04 236.053 380.096C235.589 380.16 235.145 380.192 234.721 380.192C233.849 380.192 233.029 380.052 232.261 379.772C231.501 379.484 230.833 379.06 230.257 378.5C229.689 377.94 229.237 377.244 228.901 376.412C228.573 375.58 228.409 374.612 228.409 373.508C228.409 372.676 228.549 371.888 228.829 371.144C229.117 370.4 229.525 369.748 230.053 369.188C230.589 368.628 231.233 368.184 231.985 367.856C232.745 367.528 233.601 367.364 234.553 367.364ZM234.625 369.932C233.913 369.932 233.357 370.136 232.957 370.544C232.557 370.944 232.293 371.524 232.165 372.284H236.809C236.809 371.988 236.769 371.7 236.689 371.42C236.617 371.14 236.493 370.892 236.317 370.676C236.149 370.452 235.925 370.272 235.645 370.136C235.365 370 235.025 369.932 234.625 369.932Z" fill="#6D6D6D"/>
</svg>
