<svg width="350" height="350" viewBox="0 0 350 350" fill="none" xmlns="http://www.w3.org/2000/svg">
<rect width="350" height="350" fill="#AFAFAF"/>
<path fill-rule="evenodd" clip-rule="evenodd" d="M161.844 109.029C158.684 109.029 156.124 111.589 156.124 114.749V174.814C156.124 176.387 157.412 177.675 158.984 177.675C159.77 177.675 160.485 177.361 161.001 176.845L168.408 169.479C169.525 168.351 171.34 168.351 172.456 169.479L179.849 176.845C180.365 177.36 181.08 177.675 181.866 177.675C183.439 177.675 184.726 176.387 184.726 174.814V119.04C184.726 117.381 186.014 116.179 187.587 116.179H191.162C193.135 116.179 194.738 114.577 194.738 112.604C194.738 110.631 193.135 109.029 191.162 109.029H161.844V109.029Z" fill="#6D6D6D"/>
<path d="M122.426 241.476C122.522 241.476 122.618 241.496 122.714 241.536C122.81 241.568 122.902 241.628 122.99 241.716L124.598 243.408C123.894 244.328 123.01 245.024 121.946 245.496C120.89 245.96 119.638 246.192 118.19 246.192C116.862 246.192 115.67 245.968 114.614 245.52C113.566 245.064 112.674 244.44 111.938 243.648C111.21 242.848 110.65 241.904 110.258 240.816C109.866 239.72 109.67 238.532 109.67 237.252C109.67 235.948 109.894 234.752 110.342 233.664C110.79 232.568 111.414 231.624 112.214 230.832C113.022 230.04 113.986 229.424 115.106 228.984C116.226 228.544 117.462 228.324 118.814 228.324C119.47 228.324 120.086 228.384 120.662 228.504C121.246 228.616 121.79 228.776 122.294 228.984C122.798 229.184 123.262 229.428 123.686 229.716C124.11 229.996 124.486 230.308 124.814 230.652L123.446 232.488C123.358 232.6 123.254 232.704 123.134 232.8C123.014 232.888 122.846 232.932 122.63 232.932C122.486 232.932 122.35 232.9 122.222 232.836C122.094 232.772 121.958 232.696 121.814 232.608C121.67 232.512 121.51 232.412 121.334 232.308C121.166 232.196 120.962 232.096 120.722 232.008C120.49 231.912 120.214 231.832 119.894 231.768C119.582 231.704 119.214 231.672 118.79 231.672C118.054 231.672 117.382 231.804 116.774 232.068C116.166 232.324 115.642 232.696 115.202 233.184C114.77 233.664 114.43 234.248 114.182 234.936C113.942 235.624 113.822 236.396 113.822 237.252C113.822 238.148 113.942 238.944 114.182 239.64C114.43 240.336 114.762 240.924 115.178 241.404C115.602 241.876 116.094 242.236 116.654 242.484C117.214 242.732 117.814 242.856 118.454 242.856C118.822 242.856 119.158 242.84 119.462 242.808C119.766 242.768 120.046 242.704 120.302 242.616C120.566 242.528 120.814 242.416 121.046 242.28C121.286 242.136 121.526 241.96 121.766 241.752C121.862 241.672 121.966 241.608 122.078 241.56C122.19 241.504 122.306 241.476 122.426 241.476ZM131.996 233.364C132.94 233.364 133.8 233.512 134.576 233.808C135.352 234.104 136.016 234.528 136.568 235.08C137.128 235.632 137.56 236.304 137.864 237.096C138.176 237.88 138.332 238.764 138.332 239.748C138.332 240.74 138.176 241.636 137.864 242.436C137.56 243.228 137.128 243.904 136.568 244.464C136.016 245.016 135.352 245.444 134.576 245.748C133.8 246.044 132.94 246.192 131.996 246.192C131.044 246.192 130.176 246.044 129.392 245.748C128.616 245.444 127.944 245.016 127.376 244.464C126.816 243.904 126.38 243.228 126.068 242.436C125.764 241.636 125.612 240.74 125.612 239.748C125.612 238.764 125.764 237.88 126.068 237.096C126.38 236.304 126.816 235.632 127.376 235.08C127.944 234.528 128.616 234.104 129.392 233.808C130.176 233.512 131.044 233.364 131.996 233.364ZM131.996 243.432C132.852 243.432 133.48 243.132 133.88 242.532C134.288 241.924 134.492 241.004 134.492 239.772C134.492 238.54 134.288 237.624 133.88 237.024C133.48 236.424 132.852 236.124 131.996 236.124C131.116 236.124 130.472 236.424 130.064 237.024C129.656 237.624 129.452 238.54 129.452 239.772C129.452 241.004 129.656 241.924 130.064 242.532C130.472 243.132 131.116 243.432 131.996 243.432ZM143.854 233.556V241.452C143.854 242.068 143.994 242.544 144.274 242.88C144.554 243.216 144.966 243.384 145.51 243.384C145.918 243.384 146.298 243.3 146.65 243.132C147.01 242.964 147.358 242.728 147.694 242.424V233.556H151.414V246H149.11C148.646 246 148.342 245.792 148.198 245.376L147.97 244.656C147.73 244.888 147.482 245.1 147.226 245.292C146.97 245.476 146.694 245.636 146.398 245.772C146.11 245.9 145.798 246 145.462 246.072C145.126 246.152 144.758 246.192 144.358 246.192C143.678 246.192 143.074 246.076 142.546 245.844C142.026 245.604 141.586 245.272 141.226 244.848C140.866 244.424 140.594 243.924 140.41 243.348C140.226 242.772 140.134 242.14 140.134 241.452V233.556H143.854ZM161.183 246H157.799L152.975 233.556H156.071C156.335 233.556 156.555 233.62 156.731 233.748C156.915 233.868 157.039 234.02 157.103 234.204L158.831 239.784C158.967 240.24 159.095 240.684 159.215 241.116C159.343 241.548 159.451 241.98 159.539 242.412C159.627 241.98 159.735 241.548 159.863 241.116C159.991 240.684 160.127 240.24 160.271 239.784L162.071 234.204C162.135 234.02 162.255 233.868 162.431 233.748C162.607 233.62 162.815 233.556 163.055 233.556H166.007L161.183 246ZM172.42 233.364C173.244 233.364 173.996 233.492 174.676 233.748C175.364 234.004 175.952 234.376 176.44 234.864C176.936 235.352 177.32 235.952 177.592 236.664C177.872 237.368 178.012 238.168 178.012 239.064C178.012 239.344 178 239.572 177.976 239.748C177.952 239.924 177.908 240.064 177.844 240.168C177.78 240.272 177.692 240.344 177.58 240.384C177.476 240.424 177.34 240.444 177.172 240.444H169.996C170.116 241.484 170.432 242.24 170.944 242.712C171.456 243.176 172.116 243.408 172.924 243.408C173.356 243.408 173.728 243.356 174.04 243.252C174.352 243.148 174.628 243.032 174.868 242.904C175.116 242.776 175.34 242.66 175.54 242.556C175.748 242.452 175.964 242.4 176.188 242.4C176.484 242.4 176.708 242.508 176.86 242.724L177.94 244.056C177.556 244.496 177.14 244.856 176.692 245.136C176.252 245.408 175.796 245.624 175.324 245.784C174.86 245.936 174.392 246.04 173.92 246.096C173.456 246.16 173.012 246.192 172.588 246.192C171.716 246.192 170.896 246.052 170.128 245.772C169.368 245.484 168.7 245.06 168.124 244.5C167.556 243.94 167.104 243.244 166.768 242.412C166.44 241.58 166.276 240.612 166.276 239.508C166.276 238.676 166.416 237.888 166.696 237.144C166.984 236.4 167.392 235.748 167.92 235.188C168.456 234.628 169.1 234.184 169.852 233.856C170.612 233.528 171.468 233.364 172.42 233.364ZM172.492 235.932C171.78 235.932 171.224 236.136 170.824 236.544C170.424 236.944 170.16 237.524 170.032 238.284H174.676C174.676 237.988 174.636 237.7 174.556 237.42C174.484 237.14 174.36 236.892 174.184 236.676C174.016 236.452 173.792 236.272 173.512 236.136C173.232 236 172.892 235.932 172.492 235.932ZM180.147 246V233.556H182.355C182.539 233.556 182.691 233.572 182.811 233.604C182.939 233.636 183.043 233.688 183.123 233.76C183.211 233.824 183.275 233.912 183.315 234.024C183.363 234.136 183.403 234.272 183.435 234.432L183.639 235.596C184.095 234.892 184.607 234.336 185.175 233.928C185.743 233.52 186.363 233.316 187.035 233.316C187.603 233.316 188.059 233.452 188.403 233.724L187.923 236.46C187.891 236.628 187.827 236.748 187.731 236.82C187.635 236.884 187.507 236.916 187.347 236.916C187.211 236.916 187.051 236.9 186.867 236.868C186.683 236.828 186.451 236.808 186.171 236.808C185.195 236.808 184.427 237.328 183.867 238.368V246H180.147ZM194.429 246.192C193.837 246.192 193.313 246.108 192.857 245.94C192.409 245.764 192.029 245.52 191.717 245.208C191.413 244.888 191.181 244.504 191.021 244.056C190.861 243.608 190.781 243.108 190.781 242.556V236.124H189.725C189.533 236.124 189.369 236.064 189.233 235.944C189.097 235.816 189.029 235.632 189.029 235.392V233.94L191.009 233.556L191.741 230.52C191.837 230.136 192.109 229.944 192.557 229.944H194.501V233.58H197.525V236.124H194.501V242.304C194.501 242.592 194.569 242.832 194.705 243.024C194.849 243.208 195.053 243.3 195.317 243.3C195.453 243.3 195.565 243.288 195.653 243.264C195.749 243.232 195.829 243.2 195.893 243.168C195.965 243.128 196.029 243.096 196.085 243.072C196.149 243.04 196.221 243.024 196.301 243.024C196.413 243.024 196.501 243.052 196.565 243.108C196.637 243.156 196.709 243.236 196.781 243.348L197.909 245.112C197.429 245.472 196.889 245.744 196.289 245.928C195.689 246.104 195.069 246.192 194.429 246.192ZM203.15 233.556V241.452C203.15 242.068 203.29 242.544 203.57 242.88C203.85 243.216 204.262 243.384 204.806 243.384C205.214 243.384 205.594 243.3 205.946 243.132C206.306 242.964 206.654 242.728 206.99 242.424V233.556H210.71V246H208.406C207.942 246 207.638 245.792 207.494 245.376L207.266 244.656C207.026 244.888 206.778 245.1 206.522 245.292C206.266 245.476 205.99 245.636 205.694 245.772C205.406 245.9 205.094 246 204.758 246.072C204.422 246.152 204.054 246.192 203.654 246.192C202.974 246.192 202.37 246.076 201.842 245.844C201.322 245.604 200.882 245.272 200.522 244.848C200.162 244.424 199.89 243.924 199.706 243.348C199.522 242.772 199.43 242.14 199.43 241.452V233.556H203.15ZM213.592 246V233.556H215.8C215.984 233.556 216.136 233.572 216.256 233.604C216.384 233.636 216.488 233.688 216.568 233.76C216.656 233.824 216.72 233.912 216.76 234.024C216.808 234.136 216.848 234.272 216.88 234.432L217.084 235.596C217.54 234.892 218.052 234.336 218.62 233.928C219.188 233.52 219.808 233.316 220.48 233.316C221.048 233.316 221.504 233.452 221.848 233.724L221.368 236.46C221.336 236.628 221.272 236.748 221.176 236.82C221.08 236.884 220.952 236.916 220.792 236.916C220.656 236.916 220.496 236.9 220.312 236.868C220.128 236.828 219.896 236.808 219.616 236.808C218.64 236.808 217.872 237.328 217.312 238.368V246H213.592ZM228.834 233.364C229.658 233.364 230.41 233.492 231.09 233.748C231.778 234.004 232.366 234.376 232.854 234.864C233.35 235.352 233.734 235.952 234.006 236.664C234.286 237.368 234.426 238.168 234.426 239.064C234.426 239.344 234.414 239.572 234.39 239.748C234.366 239.924 234.322 240.064 234.258 240.168C234.194 240.272 234.106 240.344 233.994 240.384C233.89 240.424 233.754 240.444 233.586 240.444H226.41C226.53 241.484 226.846 242.24 227.358 242.712C227.87 243.176 228.53 243.408 229.338 243.408C229.77 243.408 230.142 243.356 230.454 243.252C230.766 243.148 231.042 243.032 231.282 242.904C231.53 242.776 231.754 242.66 231.954 242.556C232.162 242.452 232.378 242.4 232.602 242.4C232.898 242.4 233.122 242.508 233.274 242.724L234.354 244.056C233.97 244.496 233.554 244.856 233.106 245.136C232.666 245.408 232.21 245.624 231.738 245.784C231.274 245.936 230.806 246.04 230.334 246.096C229.87 246.16 229.426 246.192 229.002 246.192C228.13 246.192 227.31 246.052 226.542 245.772C225.782 245.484 225.114 245.06 224.538 244.5C223.97 243.94 223.518 243.244 223.182 242.412C222.854 241.58 222.69 240.612 222.69 239.508C222.69 238.676 222.83 237.888 223.11 237.144C223.398 236.4 223.806 235.748 224.334 235.188C224.87 234.628 225.514 234.184 226.266 233.856C227.026 233.528 227.882 233.364 228.834 233.364ZM228.906 235.932C228.194 235.932 227.638 236.136 227.238 236.544C226.838 236.944 226.574 237.524 226.446 238.284H231.09C231.09 237.988 231.05 237.7 230.97 237.42C230.898 237.14 230.774 236.892 230.598 236.676C230.43 236.452 230.206 236.272 229.926 236.136C229.646 236 229.306 235.932 228.906 235.932ZM109.6 276V263.556H111.904C112.136 263.556 112.328 263.608 112.48 263.712C112.64 263.816 112.752 263.972 112.816 264.18L113.032 264.9C113.272 264.676 113.52 264.468 113.776 264.276C114.032 264.084 114.304 263.924 114.592 263.796C114.888 263.66 115.204 263.556 115.54 263.484C115.884 263.404 116.256 263.364 116.656 263.364C117.336 263.364 117.936 263.484 118.456 263.724C118.984 263.956 119.428 264.284 119.788 264.708C120.148 265.124 120.42 265.624 120.604 266.208C120.788 266.784 120.88 267.412 120.88 268.092V276H117.16V268.092C117.16 267.484 117.02 267.012 116.74 266.676C116.46 266.332 116.048 266.16 115.504 266.16C115.096 266.16 114.712 266.248 114.352 266.424C113.992 266.6 113.648 266.836 113.32 267.132V276H109.6ZM129.066 263.364C130.01 263.364 130.87 263.512 131.646 263.808C132.422 264.104 133.086 264.528 133.638 265.08C134.198 265.632 134.63 266.304 134.934 267.096C135.246 267.88 135.402 268.764 135.402 269.748C135.402 270.74 135.246 271.636 134.934 272.436C134.63 273.228 134.198 273.904 133.638 274.464C133.086 275.016 132.422 275.444 131.646 275.748C130.87 276.044 130.01 276.192 129.066 276.192C128.114 276.192 127.246 276.044 126.462 275.748C125.686 275.444 125.014 275.016 124.446 274.464C123.886 273.904 123.45 273.228 123.138 272.436C122.834 271.636 122.682 270.74 122.682 269.748C122.682 268.764 122.834 267.88 123.138 267.096C123.45 266.304 123.886 265.632 124.446 265.08C125.014 264.528 125.686 264.104 126.462 263.808C127.246 263.512 128.114 263.364 129.066 263.364ZM129.066 273.432C129.922 273.432 130.55 273.132 130.95 272.532C131.358 271.924 131.562 271.004 131.562 269.772C131.562 268.54 131.358 267.624 130.95 267.024C130.55 266.424 129.922 266.124 129.066 266.124C128.186 266.124 127.542 266.424 127.134 267.024C126.726 267.624 126.522 268.54 126.522 269.772C126.522 271.004 126.726 271.924 127.134 272.532C127.542 273.132 128.186 273.432 129.066 273.432ZM137.444 276V263.556H139.748C139.98 263.556 140.172 263.608 140.324 263.712C140.484 263.816 140.596 263.972 140.66 264.18L140.876 264.9C141.116 264.676 141.364 264.468 141.62 264.276C141.876 264.084 142.148 263.924 142.436 263.796C142.732 263.66 143.048 263.556 143.384 263.484C143.728 263.404 144.1 263.364 144.5 263.364C145.18 263.364 145.78 263.484 146.3 263.724C146.828 263.956 147.272 264.284 147.632 264.708C147.992 265.124 148.264 265.624 148.448 266.208C148.632 266.784 148.724 267.412 148.724 268.092V276H145.004V268.092C145.004 267.484 144.864 267.012 144.584 266.676C144.304 266.332 143.892 266.16 143.348 266.16C142.94 266.16 142.556 266.248 142.196 266.424C141.836 266.6 141.492 266.836 141.164 267.132V276H137.444ZM160.374 276.192C159.782 276.192 159.258 276.108 158.802 275.94C158.354 275.764 157.974 275.52 157.662 275.208C157.358 274.888 157.126 274.504 156.966 274.056C156.806 273.608 156.726 273.108 156.726 272.556V266.124H155.67C155.478 266.124 155.314 266.064 155.178 265.944C155.042 265.816 154.974 265.632 154.974 265.392V263.94L156.954 263.556L157.686 260.52C157.782 260.136 158.054 259.944 158.502 259.944H160.446V263.58H163.47V266.124H160.446V272.304C160.446 272.592 160.514 272.832 160.65 273.024C160.794 273.208 160.998 273.3 161.262 273.3C161.398 273.3 161.51 273.288 161.598 273.264C161.694 273.232 161.774 273.2 161.838 273.168C161.91 273.128 161.974 273.096 162.03 273.072C162.094 273.04 162.166 273.024 162.246 273.024C162.358 273.024 162.446 273.052 162.51 273.108C162.582 273.156 162.654 273.236 162.726 273.348L163.854 275.112C163.374 275.472 162.834 275.744 162.234 275.928C161.634 276.104 161.014 276.192 160.374 276.192ZM165.616 276V263.556H167.824C168.008 263.556 168.16 263.572 168.28 263.604C168.408 263.636 168.512 263.688 168.592 263.76C168.68 263.824 168.744 263.912 168.784 264.024C168.832 264.136 168.872 264.272 168.904 264.432L169.108 265.596C169.564 264.892 170.076 264.336 170.644 263.928C171.212 263.52 171.832 263.316 172.504 263.316C173.072 263.316 173.528 263.452 173.872 263.724L173.392 266.46C173.36 266.628 173.296 266.748 173.2 266.82C173.104 266.884 172.976 266.916 172.816 266.916C172.68 266.916 172.52 266.9 172.336 266.868C172.152 266.828 171.92 266.808 171.64 266.808C170.664 266.808 169.896 267.328 169.336 268.368V276H165.616ZM181.074 263.364C182.018 263.364 182.878 263.512 183.654 263.808C184.43 264.104 185.094 264.528 185.646 265.08C186.206 265.632 186.638 266.304 186.942 267.096C187.254 267.88 187.41 268.764 187.41 269.748C187.41 270.74 187.254 271.636 186.942 272.436C186.638 273.228 186.206 273.904 185.646 274.464C185.094 275.016 184.43 275.444 183.654 275.748C182.878 276.044 182.018 276.192 181.074 276.192C180.122 276.192 179.254 276.044 178.47 275.748C177.694 275.444 177.022 275.016 176.454 274.464C175.894 273.904 175.458 273.228 175.146 272.436C174.842 271.636 174.69 270.74 174.69 269.748C174.69 268.764 174.842 267.88 175.146 267.096C175.458 266.304 175.894 265.632 176.454 265.08C177.022 264.528 177.694 264.104 178.47 263.808C179.254 263.512 180.122 263.364 181.074 263.364ZM181.074 273.432C181.93 273.432 182.558 273.132 182.958 272.532C183.366 271.924 183.57 271.004 183.57 269.772C183.57 268.54 183.366 267.624 182.958 267.024C182.558 266.424 181.93 266.124 181.074 266.124C180.194 266.124 179.55 266.424 179.142 267.024C178.734 267.624 178.53 268.54 178.53 269.772C178.53 271.004 178.734 271.924 179.142 272.532C179.55 273.132 180.194 273.432 181.074 273.432ZM192.932 263.556V271.452C192.932 272.068 193.072 272.544 193.352 272.88C193.632 273.216 194.044 273.384 194.588 273.384C194.996 273.384 195.376 273.3 195.728 273.132C196.088 272.964 196.436 272.728 196.772 272.424V263.556H200.492V276H198.188C197.724 276 197.42 275.792 197.276 275.376L197.048 274.656C196.808 274.888 196.56 275.1 196.304 275.292C196.048 275.476 195.772 275.636 195.476 275.772C195.188 275.9 194.876 276 194.54 276.072C194.204 276.152 193.836 276.192 193.436 276.192C192.756 276.192 192.152 276.076 191.624 275.844C191.104 275.604 190.664 275.272 190.304 274.848C189.944 274.424 189.672 273.924 189.488 273.348C189.304 272.772 189.212 272.14 189.212 271.452V263.556H192.932ZM210.262 276H206.878L202.054 263.556H205.15C205.414 263.556 205.634 263.62 205.81 263.748C205.994 263.868 206.118 264.02 206.182 264.204L207.91 269.784C208.046 270.24 208.174 270.684 208.294 271.116C208.422 271.548 208.53 271.98 208.618 272.412C208.706 271.98 208.814 271.548 208.942 271.116C209.07 270.684 209.206 270.24 209.35 269.784L211.15 264.204C211.214 264.02 211.334 263.868 211.51 263.748C211.686 263.62 211.894 263.556 212.134 263.556H215.086L210.262 276ZM221.498 263.364C222.322 263.364 223.074 263.492 223.754 263.748C224.442 264.004 225.03 264.376 225.518 264.864C226.014 265.352 226.398 265.952 226.67 266.664C226.95 267.368 227.09 268.168 227.09 269.064C227.09 269.344 227.078 269.572 227.054 269.748C227.03 269.924 226.986 270.064 226.922 270.168C226.858 270.272 226.77 270.344 226.658 270.384C226.554 270.424 226.418 270.444 226.25 270.444H219.074C219.194 271.484 219.51 272.24 220.022 272.712C220.534 273.176 221.194 273.408 222.002 273.408C222.434 273.408 222.806 273.356 223.118 273.252C223.43 273.148 223.706 273.032 223.946 272.904C224.194 272.776 224.418 272.66 224.618 272.556C224.826 272.452 225.042 272.4 225.266 272.4C225.562 272.4 225.786 272.508 225.938 272.724L227.018 274.056C226.634 274.496 226.218 274.856 225.77 275.136C225.33 275.408 224.874 275.624 224.402 275.784C223.938 275.936 223.47 276.04 222.998 276.096C222.534 276.16 222.09 276.192 221.666 276.192C220.794 276.192 219.974 276.052 219.206 275.772C218.446 275.484 217.778 275.06 217.202 274.5C216.634 273.94 216.182 273.244 215.846 272.412C215.518 271.58 215.354 270.612 215.354 269.508C215.354 268.676 215.494 267.888 215.774 267.144C216.062 266.4 216.47 265.748 216.998 265.188C217.534 264.628 218.178 264.184 218.93 263.856C219.69 263.528 220.546 263.364 221.498 263.364ZM221.57 265.932C220.858 265.932 220.302 266.136 219.902 266.544C219.502 266.944 219.238 267.524 219.11 268.284H223.754C223.754 267.988 223.714 267.7 223.634 267.42C223.562 267.14 223.438 266.892 223.262 266.676C223.094 266.452 222.87 266.272 222.59 266.136C222.31 266 221.97 265.932 221.57 265.932ZM226.346 258.324L223.226 261.48C223.042 261.664 222.866 261.796 222.698 261.876C222.53 261.948 222.306 261.984 222.026 261.984H219.794L221.426 259.044C221.562 258.812 221.722 258.636 221.906 258.516C222.09 258.388 222.37 258.324 222.746 258.324H226.346ZM234.553 263.364C235.377 263.364 236.129 263.492 236.809 263.748C237.497 264.004 238.085 264.376 238.573 264.864C239.069 265.352 239.453 265.952 239.725 266.664C240.005 267.368 240.145 268.168 240.145 269.064C240.145 269.344 240.133 269.572 240.109 269.748C240.085 269.924 240.041 270.064 239.977 270.168C239.913 270.272 239.825 270.344 239.713 270.384C239.609 270.424 239.473 270.444 239.305 270.444H232.129C232.249 271.484 232.565 272.24 233.077 272.712C233.589 273.176 234.249 273.408 235.057 273.408C235.489 273.408 235.861 273.356 236.173 273.252C236.485 273.148 236.761 273.032 237.001 272.904C237.249 272.776 237.473 272.66 237.673 272.556C237.881 272.452 238.097 272.4 238.321 272.4C238.617 272.4 238.841 272.508 238.993 272.724L240.073 274.056C239.689 274.496 239.273 274.856 238.825 275.136C238.385 275.408 237.929 275.624 237.457 275.784C236.993 275.936 236.525 276.04 236.053 276.096C235.589 276.16 235.145 276.192 234.721 276.192C233.849 276.192 233.029 276.052 232.261 275.772C231.501 275.484 230.833 275.06 230.257 274.5C229.689 273.94 229.237 273.244 228.901 272.412C228.573 271.58 228.409 270.612 228.409 269.508C228.409 268.676 228.549 267.888 228.829 267.144C229.117 266.4 229.525 265.748 230.053 265.188C230.589 264.628 231.233 264.184 231.985 263.856C232.745 263.528 233.601 263.364 234.553 263.364ZM234.625 265.932C233.913 265.932 233.357 266.136 232.957 266.544C232.557 266.944 232.293 267.524 232.165 268.284H236.809C236.809 267.988 236.769 267.7 236.689 267.42C236.617 267.14 236.493 266.892 236.317 266.676C236.149 266.452 235.925 266.272 235.645 266.136C235.365 266 235.025 265.932 234.625 265.932Z" fill="#6D6D6D"/>
</svg>
